<svg xmlns="http://www.w3.org/2000/svg" width="104" height="102" xmlns:v="https://vecta.io/nano"><path d="M104 102V59.727H84.114c0-5.871.689-11.182 2.068-15.933s3.42-9.287 6.125-13.61S98.909 22.257 104 19.375V0c-9.758 4.27-17.712 9.874-23.864 16.813S69.424 31.358 66.455 39.631 62 59.941 62 75.74V102h42zm-62 0V59.727H22.114c0-5.871.689-11.182 2.068-15.933s3.42-9.287 6.125-13.61S36.909 22.257 42 19.375V0c-9.652 4.27-17.58 9.874-23.784 16.813S7.424 31.358 4.455 39.631 0 59.941 0 75.74V102h42z" fill="#a775f1"/></svg>